<?xml version="1.0" encoding="utf-8"?>
<!-- Generator: Adobe Illustrator 25.2.1, SVG Export Plug-In . SVG Version: 6.00 Build 0)  -->
<svg version="1.1" id="Layer_1" focusable="false" xmlns="http://www.w3.org/2000/svg" xmlns:xlink="http://www.w3.org/1999/xlink"
	 x="0px" y="0px" viewBox="0 0 576 512" style="enable-background:new 0 0 576 512;" xml:space="preserve">
<style type="text/css">
	.st0{fill:#0EB8D9;}
</style>
<path class="st0" d="M128,416h64c17.7,0,32-14.3,32-32V32c0-17.7-14.3-32-32-32h-64c-17.7,0-32,14.3-32,32v352
	C96,401.7,110.3,416,128,416z M528,32H256v352c0,35.3-28.7,64-64,64h-64c-35.3,0-64-28.7-64-64V32H48C21.5,32,0,53.5,0,80v384
	c0,26.5,21.5,48,48,48h480c26.5,0,48-21.5,48-48V80C576,53.5,554.5,32,528,32z M384,432c0,8.8-7.2,16-16,16h-32c-8.8,0-16-7.2-16-16
	v-32c0-8.8,7.2-16,16-16h32c8.8,0,16,7.2,16,16V432z M384,304c0,8.8-7.2,16-16,16h-32c-8.8,0-16-7.2-16-16v-32c0-8.8,7.2-16,16-16
	h32c8.8,0,16,7.2,16,16V304z M512,432c0,8.8-7.2,16-16,16h-32c-8.8,0-16-7.2-16-16v-32c0-8.8,7.2-16,16-16h32c8.8,0,16,7.2,16,16
	V432z M512,304c0,8.8-7.2,16-16,16h-32c-8.8,0-16-7.2-16-16v-32c0-8.8,7.2-16,16-16h32c8.8,0,16,7.2,16,16V304z M512,192H320V96h192
	V192z"/>
</svg>
